<?xml version="1.0" encoding="utf-8"?>
<!-- Svg Vector Icons : http://www.onlinewebfonts.com/icon -->
<!DOCTYPE svg PUBLIC "-//W3C//DTD SVG 1.1//EN" "http://www.w3.org/Graphics/SVG/1.1/DTD/svg11.dtd">
<svg version="1.1" xmlns="http://www.w3.org/2000/svg" xmlns:xlink="http://www.w3.org/1999/xlink" x="0px" y="0px" viewBox="0 0 1000 1000" enable-background="new 0 0 1000 1000" xml:space="preserve">
<metadata> Svg Vector Icons : http://www.onlinewebfonts.com/icon </metadata>
<g><path d="M713.2,248.8c-8.4,1.8-20.3,5.4-24.8,6.2l0,0c-2.2,1.5-5.8,5.4-7.1,8.1l31.7-1.6L713.2,248.8L713.2,248.8z M852.1,287.1c-2.2-2-4.4-3-5.9-3.2c0.9-4,4.2-9.1,7.1-19.5c0.4-1.4,0.7-2.8,1-4.1c0.8-2.3,1.1-4.4,0.7-5.6c-1.2-3.8-8.6-7.6-7.6-21.1c1-13.4-4-29.3-12.6-38.7c-6.9-6.6-12.1-4.5-7,3c5.1,7.4,9.9,20.5,8.6,29.2c-2.4,16.4,3.8,26,8.1,31.3l-9.7,3.4l-1.7-11.7c-8.2-5.9-14.4-14.8-15.2-24.3c-2.3,9.9-1.5,21.2,3.5,31.4l-15.6,9.4c0,0-0.3,4.5-2.2,6.5c-1.7,0.9-28.9,1.3-29.1,1.4c-7,0.2-19,1.6-26.6,1.7c-31.5-1.2-57.5,0.4-71.6,4.5c-0.1,0-0.2,0.1-0.3,0.1c-1.3,0.4-2.5,0.9-3.6,1.4c0.1-0.1,0.2-0.2,0.2-0.3c-8.8,3-13.2,6.2-16.5,6.2c-2.4,0-5.4-1.3-7.6-4.3c-5.8,1.8-10.2,4.7-13.6,8c-0.4,0.7-0.8,1.3-1.4,1.8c-5.4,4.8-6.4,13.6-10.2,17.7c-1.6,1.7-6.7,0.7-11.5,1.7l2.6,10.8c-1.6-0.1-6.6,0.4-9.5,1c-1.7,0.7-2.6-0.4-3-1.3c-1-5.1-2.4-8.1-2.6-8.7c-4.9-0.4-12.1,2.8-18,5.1c-5.6-5.6-11.5-9.9-18.4-12.6c-9.4-3.5-28-5.2-44.1-4.6c-16.2,0.5-48.9,9.9-62.8,15.1c0,0-1.3,0.2-1.5-1.1c-0.2-1.3-2.6-7.8-2.6-7.8c5-1.5,13.9-6.9,14.7-11.2c0.9-4.3,1.8-16.4,3.5-22.5c7.2-15.1,19.5-13.9,20.8-17.3c6.9,0.9,4.3-10.4,2.6-17.3c-5.2-6.1-8.6-13.9-10.3-23.4c-1.7-9.5,0.1-28.6,8.7-39c17.4-20.9,45.1-21.6,65-14.6c-4.6-11.8-22.5-23.4-39.8-26.9c-17.2-1.4-43.3,1.2-58,16.4c0.4-9.5,13-25.1,34.7-32.9c-5.6-2.6-30-2.6-45,12.1c-14.9,14.6-33,39.8-20.9,82.2c4.6,16.1-7.8,24-11.3,37.2c-2.8,10.5,4.3,42.5,6.8,78.8c-3.1,1.9-11.5,2.2-14.6,3.5c-3.9,1.6-20.2,14.1-22.7,12.1c-1.9-1-2.7-5.3-2.4-10.2c-7.1-7.8-16.8-15-16.6-21.9c0.2-6.9,5-12.6,8.7-14.7c-2.8-7.2-10.3-25.1-21.6-29.5c8.5-12.3,9.6-19,0.9-39c-3.6-7.6-3.2-14.6-0.6-21c-0.8,0.5-1.6,1.1-2.3,1.5c-4.7,2.2-11.3,5.4-12.3,3c-1.3-3.2-2.4-6.4-3.2-9.6c12.7-4.5,33.7-24.5,41.5-44c3.2,9.4,1.4,18.9-1.7,25.9c1.9-1.2,3.8-2.5,5.6-3.4c21.8-10.4,23-51.8,31.3-71c4.2-7.6,30.8-12.6,47.5-33.1c-8.3,2.3-17.7,3.5-21.5,2.9c6.9-1.1,26.9-11.4,32.4-22c-10.4,5.8-23.6,6-36.7,6.3c-2.2,0,16.8-15.2,26-22.5c16.5-10.4,39-22.4,69-27.5c2.5-0.5,9.8-1.3,13-4.2c1.1-0.8-0.6-1.7-2.8-2c-23.3-0.5-46.7,3.4-66.9,11.4c-17.7,7-35.2,19-50.7,30C409.1,73,391.2,89.7,372,106.6c9.5,34.8-15.2,67.7-40.5,88.5c-8.5,14.8,4.5,29.6,7.4,43.8c0,0-3.4,15.3-3.4,32.6c0.1,17.4,6,46.3,5.8,60.8c2.9,10.8,16.1,20.4,24.2,31.2c-2,1.7-3.5,3.8-4.5,6l-0.1-0.2c-5.6,12,0.2,27.4,7.1,42.6c3.1,7,12.1,20.7,15.2,27.7c1.6,3.5,6.8,17,7.7,17.7c0,0,0,0.1-0.1,0.1c5.1,12.3,10.9,24.9,21.8,34.3c1,7.3,2.6,28.5,7.2,35.6c4.2,6.3,16.6,14.5,20.5,13.2c4.5-1.5,5.5,0.4,6.7,3.3c3.4,9.5,3.7,18,8.3,29.5c5.7,14.4,22.6,36.3,20.6,42.6c-0.8,2.7-7.8-0.7-11.3,5.6c-19,23.9-27.3,55.6-50.7,74.7c-76.2,42.7-154.3,82.1-231.7,123.2c-20.8,16.3-40.2,44.4-51.1,69.6v6.3c8.1-12.7,19.1-30,23.2-33.8c48.7-52.7,84.2-47.2,145.3-80c16.4-7.2,89-40.9,92.6-41.6l-3,25.6c18.9-21.2,47.9-30.3,55.1-56.3c2.1-7.7,5.1-27.3,9.9-39.2c2.5-6.2,7.5-15,9.8-13.8c1.8-2.1,1.7,16.7,5.8,26.6c3.1,8.9,7.7,21.6,16.5,44.9c8.8,23.4,60,147,60,147s1.9,3.7,4.1,5.6c2.2,1.9,6,1.3,7.2-2.5c-14.4-41.8-36.2-102.5-42.8-126c-6.6-23.5-10.4-53.3-16.2-85.6c-0.1-3.4,3.3-5.3,6.3-6c33.4,24.3,83.9,43.6,131.8,67.2c-14.7-0.1-51.4,1.4-63.8,16.4c1.7,14.9,11.1,35.5,11.9,42.5c0.8,6.9,9.5,8.3,9.5,8.3c25,1.6,54-20.4,74.3-24.3c-7.6,68,9.5,141.5,19.5,213.3l36.1,6.5c-3.7-46.5-11.6-90-15.3-136.5c-0.4-2-1-5.1,0.8-4.8c15.4,35.6,23.5,73,38.7,108.9c9.4-9.2,20.3-17.8,28.1-27.3c-17.6-51.7-40.4-128.9-52-148.5c-5.2-8.8-13.3-15-16.3-22.4l-0.5-2.9c9.4,3.4,18.4,4.6,27.2,4.5c6.4-0.2,13-1,20.2-1.8c9.3-1.4,18.7-3.3,28.4-4.4c0,0,9.9-4.2,9.5-9.1c-0.4-4.8-3.2-32.6-4.3-36.7c-1.1-4.1-5.1-7.5-5.1-7.5c-23.4,5.1-41.6,4.4-58.5,10.3c-7.6,2.3-10.7,7.2-13.4,3.4c-0.2-0.8,6-6.9,8.3-9.1c19.1-17.5,40.5-35.6,55.8-58.3l3.4-9.9c-17.9,16.1-37.6,25.4-50.9,31.4l-3-2.1c18.2-15.2,38.9-43.6,39-69.3c-17.2,22.3-32.9,38-53.9,54.4c2.6,25.1-7,41.6-13.4,56c-3.8,8.7-5.1,20.6-5.2,24.2l-7.2-5.4c-0.5,1-3.6,4.1-4.5,7.1c-9.7-7.8-18.2-18.7-19.4-29.5c0,0-4.6,10.4-11.3,12.6c1.1-4.1,0-14.1-4.3-17.2c-12.8-10.6-25.7-28.6-23.7-57.8c0.2-3.2,2.8-15.5,2.8-26l0,0.1c0.3-9.4-2.9-16.9-5.4-24.1c5.1,5.9,14.8,15.8,17.7,20.4c1.3-3.9,3.2-16.5,0.9-24.4c-3.4-12.1-10.5-24.1-10.5-24.1s-16.3-3.1-12.7-9.3c6.8-12,25.1-13.5,41-15.7c30.9-3.3,29.5-16.5,52.4-16.9c4.8,0.1,8.3,2.5,9,4.1c0.7,1.6-2.1,10.4,0.2,13.4c9.4-3.4,9-14.9,15.6-22.1c8.7-7.2,17.5,7.7,26,1.8c0,0-8.2-32.5-4.7-35.9c6,0.4,11.5-2.3,14.3-6.9c-10.1-30.1-37.4-19.6-54.7-50.6c-8.7-6.5-29-11.2-35.9-10.9c-4.7-1.5,2.9,13.8-7.3,18.5c-10.8,1-13.9,6.3-21.7,14.7c-5.2-8.7-17.2-8.7-34.6-5.3c-12.8-1.4-16.8-12-16.2-24.3c0.4-8.2,3.5-15,4.1-20.8c-6.3-15-2.2-45.6-8-52.9c-2.2-6.5,10.4-11.2,16.4-12.1c6-0.9,13.8,0.1,15.5,3.5c2.8,8.9,6,17.1,11.7,21.7c2-4.8,3.8-10.6,9.1-13.3c3.5-1.7,9.8-0.4,9.8-0.4s1.2,1.8,0.1,3.5c-2.5,3.7-7.5,11.8-8.1,13.3c-0.6,1.5-1.6,2.4-0.7,3.8c3.3,2.3,9.5,9.4,18.9,7.5c-1.3-5.2,1.3-20.1,0.9-24c-0.4-3.9,5.2-6.5,5.2-6.5c1.7-1.1,13.4-3,17.8-3.9c4.3-0.9,28.7-3.8,32.9-4.3c0,0,3.9,2.2,10.4,8.3c7.8-2.9,20.7-5,23.3-2.4c0.4,1.6,0.8,3.3,0.9,5.3c0.6,12.8-4.2,26.2-10.7,33.3c-5.6,6.2-1.4,12.5,4.9,7.4c5.6-4.5,12.5-17.3,15.1-30.3c3.2-15.7,2.2-31.2,1.9-41.8h0c-0.2-1.6,0.1-8.6,0.2-9c0.4-2.4,1-4.4,2-5.3c3.5-3,9.9-4.7,14.1-5.9c4-0.9,7.6-1.3,9.3-1.6c4.8-0.7,9.5-0.7,10.7-1c0.9,2.9,2.9,6,3.5,8.7c-0.3,0-0.5,0-0.8,0l0-0.1c-0.3,0.1-0.7,0.1-1,0.1c-4.7,0.3-11.3,1.6-14.5,3.1c5.2,4.3,7.7,15.6,8.2,20.8c0.4,4.8,0.8,12,1.7,16c2.6,10.4,4.3,16.9,7.8,22.5c14.7,2.6,12.5,21.7,10.3,28.2c0.9,1.3,3.9,3,3.9,3s12-8.5,2.5-30.6c-10.1-9.1-2.5-16.9-1.3-17.9l6.3-7.8c1.7-5.1-2.9-4.2-2.9-10.3c0.9-3.4,7.1-6.6,8.1-8.5c3.7,3.3,6.6,17.1,7.8,20.5c0,0,5,8.6,6,7.8c1.3-9.6,2.6-17.6,1.2-26.3c2.3-2,5.7-0.1,8,1.8c1.9,19.4-1.3,39.8-2.8,45.3c-1.2,4.7-3.1,14.1-4.8,22.7l0,0l-5.8,19.9c6.1,9-0.8,24.1-7.1,38.3c3.6,9.4,3.2,19.8-2.3,23.1c-5.2,3-7.8,1.5-7.8,1.5c-6.7,0.2-9.4,3.9-6.9,11.5c2,11.2,0.6,18,0.6,18l2.5,11.7c1.7-8.1,2.6-19.3,1.8-28.9c0,0,1.3-0.4,3-1.1c3,1.9,9.4,2,15.1-2.4c3.8-3,6.8-11.3,5.8-23c-0.7-6.9,1.7-13.8,4-18.9c2.3-5.1,5.5-25,4.8-31.1c-0.7-6.1,6.5-44.9,7.7-57c3.4-33.3-4.2-56.3-16-65.2L852.1,287.1z M398.1,369.2c3.2-2.1,10.8-5.6,15.6-6.9l5.1,34.6L398.1,369.2L398.1,369.2z M417.6,349.7l-1.1-6.7l16.9-2.9l1.1,6.7L417.6,349.7z M586.4,447.4c-5.3,0.7-11.7,4.4-15.5-0.5c-3.6-7.7-0.1-18.6,8.9-24.3c2-1,4.5,2.1,4.1,4.8C583.2,435.7,585.2,444.1,586.4,447.4L586.4,447.4z M510.9,336.4c5.5-2,19-2.1,22.8-1.5c1.7,0.6,3.5,4,3.5,4c-12.4,0.8-26.4,5-36,11.6c-7.6,5-14.5,9.7-19.7,11l0,0c-1.3,0.8-3.4-1.9-3.4-1.9C486.9,355,501.1,339,510.9,336.4L510.9,336.4z M446.8,353.6c-0.6-11.7,10.9-16.7,21.7-18.8C460.8,341.7,455.3,347.9,446.8,353.6z M484.7,451.4L484.7,451.4c-7.7-5.5-15.6-14.3-17.3-18.7c-0.9-1.7-0.1-3.1,0.8-4.2c13.9,10,37.5,16.7,61.1,13.4c8.8-1.2,5.6-12.1-1.9-11.4c-22.4,2.1-43.5-6.6-54.2-15.7c-6.3-6.6-12.3-17.9-13.3-26.5c3.7-2.3,3.8-6,9.4-4.8c7.6,2.6,12.5,11.6,21.1,5.2c1.4-2.8-1-4.8,0.1-7.4c0.8-1.9,2.7-4.6,6.1-7.5c-0.1-0.1-0.1-0.2-0.1-0.2s1.8-1.3,4.2-2.8c0.3-0.2,0.6-0.4,0.9-0.6c2.8-1.7,6-3.5,7.8-3.8c2.3-0.4,12.6-1.6,20-2.3c0.3,0,0.6-0.1,1-0.1c3.5-0.3,6.1-0.4,6.6-0.2c3.9,0.1,11.1-2.6,14.4-0.5c1.4,1.2,6.9,1.8,4,5.2c-3.6,4.3-3.6,4.6-2.6,6c1.7,2.7,14.2,2.7,16.7,3.5c3.5-0.1,3.8-9.2,4.4-14.1c1.4-1.7,6.6-2,7.5-0.6c0.8,1.2,2.6,5.8-1.2,26.6c-2.9,16.1-16.9,27-29.8,35c-7.7,6-2.8,10.9-3.1,14.9c-13.8,10-32.7,26.1-36.7,31.1c-6.1,7.8-20.5,2.2-23.8-3.9C484.3,462.2,487.6,453.4,484.7,451.4z M506.6,572c-5.7-7.5-14.8-14.2-19.4-37.9c-1.1-10.4,15.6-20,26-17.7c-1.7,13.3,1.7,24,5.7,32.7c4,8.7,6.6,30.3,7.2,34.4c0.6,4,11.2,9.8,15.1,3.7c3.8-5.9,1.7-14.9,8.3-16.9c1.7,3.5,7.5,12.9,9.2,19.3l0,0c1.7,6.4,6,15.9,8.1,18.5c-0.4,1.9-2.2,3.6-4.1,3.5c-4-0.3-30-3.8-46.1-15.9C517.4,591.1,512.4,579.5,506.6,572L506.6,572z M571.3,662.4c-8.5-3.2-34.5-17.3-44.7-26.7c-3.2-2.9,0.2-10.6,2.3-9.1c16.7,12.6,25.1,18.5,32.4,24.9l0,0C568.4,657.9,575.8,664.1,571.3,662.4L571.3,662.4z M679.4,521.8c-2.9,2.4-9.4,4.8-18,5.9c-16,2-35.1,5-49.8,3.6c-6.3-0.6-1.1-2.4,1.5-2.9c12.2-1.4,56.3-7.6,63.7-10.1l0,0C684.3,515.8,682.3,519.3,679.4,521.8L679.4,521.8z M595.9,474.5c1.7-0.9,4.3-3.2,6.1-5.2c4.6-2.3,7.1-2,11.5,1.2c5.8,4.1,27.1,4.1,35.2-2.3c8.1-6.3,17.3-16.2,24-20.5c6.6-4.3,9.5-10.9,10.1-16.7c6.2-1.3,20.8,12,24.1,18.5c4.3,8.7,10.8,19.7,16.8,19.6c3,0,4.5-1.6,5.7-3.8c2-0.9,4.4,2.5,5,4.1c1.7,4.1-0.5,8.9-4.4,12.1c-6.5,5.9-19.6,9.1-29.3,5.2c-5.8,5.2-12.1,8.6-16.3,9.6c-5.4,1.2-20.4,2.4-26.4-1c-8,6.5-19.9,5.6-36.4,6.9c-11.2,2.2-11.8,7.4-23.1,3.4c-2.2-1.1-4.9-1.3-11.7,3.5c-9.9,6.9-18.8,5.2-21.8,3.4c-3-1.7-7.2,0-9.8,3.5c-2.6,3.5-4.8,0.4-5.2-1.7c-0.4-2.2,3.9-18.2,6.5-25.1c2.6-6.9,7.8-11.2,10.4-11.2c2.6,0,7.9,1.3,7.9,1.3s3-2.3,5.2-5.3l0,0c2.2-3,5.9-4.6,9.4-2.9S593.3,475.4,595.9,474.5L595.9,474.5z M731.7,326.8c-3.6-0.9-9.5-2.8-9.5-2.8c-7.1-3.8-13.4-6.6-22.1-7.1l0,0c-6.9-0.3-22.5,2.6-22.5,2.6c2.6-3.9,9.9-9,14.7-9.7c5.4-0.9,11.8-1,15.5-0.2c5.2,1.1,13.5,5.4,18.2,9.1c2.8,2.2,11.7,4.7,13.8,5.2C739.1,324.5,732.9,327,731.7,326.8L731.7,326.8z M740.4,310.1c-2-3.2-4.6-6.6-8.9-8.7l0,0c-6.1-2.8-32.6-3.6-28.8-6.9c8.3-3.5,19.5-4.7,31.9-2.7c7.5,1.2,16.6,11,17.5,18.3C752.4,312.5,742.8,313.9,740.4,310.1L740.4,310.1z M756.4,290.9l-1.1-6l15-2.2l1.1,5.7L756.4,290.9L756.4,290.9z M844.1,297.5c-6.7,0.3-13.8,4.7-17.2,9.6c-2,2.9-5.5,1.4-5.2-1.1l0,0c0.5-6.3,6.2-13.6,14.3-17.1c3.8-1.7,9.2,2.1,10.8,5.8C847,296.2,845.8,297.4,844.1,297.5L844.1,297.5z M509.3,276.9c-1.4,2-3.6,7.3-4.6,10.7c-0.2,1.5,0,2,1.8,1.9l0,0c6.2,0.4,15.6-0.2,25.9,1.5l0.4-6.7c-3-3-13.2-6.5-18.8-8C511.9,276,510.6,275.9,509.3,276.9L509.3,276.9z M688.9,569l6.9-16.6c-8.8,6.8-35.2,7.8-35.2,7.8l0,0L688.9,569L688.9,569z M571,166.1c5.3,1.2,30.3-2.1,22.3-5.8c0.5,0.2-7.4-1.5-10.1-3.9c-4.3-3.7-8.7-6.6-12.2-8.2c-3.9-1-9.3-1.7-16.9-0.4C560.8,151.4,568.8,159.7,571,166.1z"/></g>
</svg>